HIERARCHY
ROOT Hips
{
	OFFSET	0.00	0.00	0.00
	CHANNELS 6 Xposition Yposition Zposition Zrotation Xrotation Yrotation
	JOINT Spine
	{
		OFFSET	 0.00	0.01	 0.00
		CHANNELS 3 Zrotation Xrotation Yrotation
		JOINT Spine1
		{
			OFFSET	 0.00	 2.45913012437421	 0.00
			CHANNELS 3 Zrotation Xrotation Yrotation
            JOINT Neck
            {
                OFFSET	 0.00	 2.48462964506057	 0.00
                CHANNELS 3 Zrotation Xrotation Yrotation
                JOINT Head
                {
                    OFFSET	 0.00	 0.927524780924562	 0.00
                    CHANNELS 3 Zrotation Xrotation Yrotation
                    End Site 
                    {
                        OFFSET	 0.00	 1.14999962169752	 0.00
                    }
                }
            }
			JOINT LeftShoulder
			{
				OFFSET	 0.00	 2.48462964506057	 0.00
				CHANNELS 3 Zrotation Xrotation Yrotation
				JOINT LeftUpArm
				{
					OFFSET	 0.00	 1.24881979654096	 0.00
					CHANNELS 3 Zrotation Xrotation Yrotation
					JOINT LeftForeArm
					{
						OFFSET	 0.00	2.59758046908119	 0.00
						CHANNELS 3 Zrotation Xrotation Yrotation
						JOINT LeftHand
						{
							OFFSET	 0.00	2.45542024364365	 0.00
							CHANNELS 3 Zrotation Xrotation Yrotation
							JOINT LeftHandThumb 
							{
								OFFSET	 0.00	0.00	 0.00
								CHANNELS 3 Zrotation Xrotation Yrotation
								End Site
								{
									OFFSET	 0.00	0.00	1.00000003353624
								}
							}
							JOINT L_Wrist_End 
							{
								OFFSET	 0.00	0.99999967115358	 0.00
								CHANNELS 3 Zrotation Xrotation Yrotation
								End Site 
								{
									OFFSET	 0.00	 0.00	 0.00
								}
							}
						}
					}
				}
			}
			JOINT RightShoulder
			{
				OFFSET	 0.00	 2.48462964506057	 0.00
				CHANNELS 3 Zrotation Xrotation Yrotation
				JOINT RightUpArm
				{
					OFFSET	 0.00	 1.24881979654096	 0.00
					CHANNELS 3 Zrotation Xrotation Yrotation
					JOINT RightForeArm
					{
						OFFSET	 0.00	2.59758046908119	 0.00
						CHANNELS 3 Zrotation Xrotation Yrotation
						JOINT RightHand
						{
							OFFSET	 0.00	2.45542024364365	 0.00
							CHANNELS 3 Zrotation Xrotation Yrotation
							JOINT RightHandThumb 
							{
								OFFSET	 0.00	0.00	 0.00
								CHANNELS 3 Zrotation Xrotation Yrotation
								End Site
								{
									OFFSET	 0.00	0.00	1.00000003353624
								}
							}
							JOINT R_Wrist_End 
							{
								OFFSET	 0.00	0.99999967115358	 0.00
								CHANNELS 3 Zrotation Xrotation Yrotation
								End Site 
								{
									OFFSET	 0.00	 0.00	 0.00
								}
							}
						}
					}
				}
			}
		}
	}
	JOINT LeftUpLeg
	{
		OFFSET	 1.2719394002717	 0.00	 0.00
		CHANNELS 3 Zrotation Xrotation Yrotation
		JOINT LeftLowLeg
		{
			OFFSET	 0.00	-4.3429100912261	 0.00
			CHANNELS 3 Zrotation Xrotation Yrotation
			JOINT LeftFoot
			{
				OFFSET	 0.00	-4.48767017425826	 0.00
				CHANNELS 3 Zrotation Xrotation Yrotation
				JOINT LeftToeBase
                {
                    OFFSET	 0.00	0.00	 1.51507020887566
                    CHANNELS 3 Zrotation Xrotation Yrotation
                    End Site 
                    {
                        OFFSET	 0.00	0.00	 0.75000010571191
                    }
                }
			}
		}
	}
	JOINT RightUpLeg
	{
		OFFSET	 -1.2719393604653	 0.00	 0.00
		CHANNELS 3 Zrotation Xrotation Yrotation
		JOINT RightLowLeg
		{
			OFFSET	 0.00	-4.3429100912261	 0.00
			CHANNELS 3 Zrotation Xrotation Yrotation
			JOINT RightFoot
			{
				OFFSET	 0.00	-4.48767017425826	 0.00
				CHANNELS 3 Zrotation Xrotation Yrotation
				JOINT RightToeBase
                {
                    OFFSET	 0.00	0.00	 1.51507020887566
                    CHANNELS 3 Zrotation Xrotation Yrotation
                    End Site 
                    {
                        OFFSET	 0.00	0.00	 0.749999965609858
                    }
                }   
			}
		}
	}
}
MOTION 
Frames:	15 
Frame Time: 0.02 
 -5.183460083007812 -4.000589904785156 9.26197021484375 136.556 85.6117 583.447 3.27651 -19.8145 1.8682 -8.84206 19.6013 3.80412 19.099 51.4878 352.107 -23.8312 -80.7359 -18.2216 -116.2142 -1.11455 367.618 -44.1807 9.41003 23.6801 0.0 21.0255 0.0 3.88945 -16.5629 -10.7506 0.0 0.0 0.0 0.0 0.0 0.0 121.954 -5.19029 -361.276 47.0142 3.38226 -18.799 0.0 22.387 0.0 2.91298 -9.21722 14.4646 0.0 0.0 0.0 0.0 0.0 0.0 -3.28202 -1.5332 -5.4762 0.0 13.2206 0.0 -9.0435 -3.4260998 9.85925 0.0 -22.65914 0.0 2.51605 -3.41886 14.0713 0.0 19.3531 0.0 27.1637 -13.1768 -8.96614 0.0 -18.5622 0.0 
  -5.1865997314453125 -3.9993600463867187 9.26218994140625 136.055 85.6318 583.922 3.29302 -19.7911 1.85813 -8.8782 19.5394 3.73741 19.2431 52.1672 352.045 -24.4712 -80.6625 -18.8576 -116.1608 -1.1146 367.647 -44.1319 9.38404 24.0366 0.0 21.1258 0.0 4.18619 -16.6498 -10.2078 0.0 0.0 0.0 0.0 0.0 0.0 121.9875 -5.29713 -361.481 46.9987 3.62826 -18.8283 0.0 22.4437 0.0 2.88619 -9.25775 14.4867 0.0 0.0 0.0 0.0 0.0 0.0 -3.27514 -1.50068 -5.46099 0.0 13.2259 0.0 -9.05221 -3.4085999 9.86531 0.0 -22.67163 0.0 2.5332 -3.40414 14.1369 0.0 19.3895 0.0 27.1177 -13.1772 -9.02641 0.0 -18.60096 0.0 
  -5.189580078125 -3.9980999755859377 9.262249755859376 135.252 85.6726 584.671 3.31083 -19.7137 1.85575 -8.89983 19.4353 3.66659 19.3161 52.8986 352.1 -25.1223 -80.6204 -19.5323 -116.128 -1.13152 367.711 -44.0713 9.37106 24.3425 0.0 21.2083 0.0 4.43151 -16.55 -10.2155 0.0 0.0 0.0 0.0 0.0 0.0 121.998505 -5.31359 -361.473 47.0095 3.60152 -18.8978 0.0 22.5101 0.0 2.85395 -9.28081 14.5431 0.0 0.0 0.0 0.0 0.0 0.0 -3.26671 -1.42782 -5.37894 0.0 13.2153 0.0 -9.03562 -3.3871994 9.84951 0.0 -22.66925 0.0 2.5534 -3.37228 14.2328 0.0 19.4493 0.0 27.1373 -13.2019005 -9.04633 0.0 -18.58879 0.0 
  -5.19219970703125 -3.995369873046875 9.2622900390625 134.504 85.7152 585.4 3.31412 -19.6512 1.81653 -8.8965 19.4213 3.60561 19.3428 53.4657 352.166 -25.7013 -80.5769 -20.0755 -116.0967 -1.13266 367.714 -44.0425 9.36943 24.5617 0.0 21.2848 0.0 4.73797 -16.4704 -9.71345 0.0 0.0 0.0 0.0 0.0 0.0 121.9746 -5.32771 -361.249 47.0447 3.46332 -19.09 0.0 22.5865 0.0 2.79452 -9.22527 14.4503 0.0 0.0 0.0 0.0 0.0 0.0 -3.26142 -1.39435 -5.34321 0.0 13.2558 0.0 -9.08432 -3.390499 9.82537 0.0 -22.67215 0.0 2.57263 -3.35715 14.2801 0.0 19.5245 0.0 27.1067 -13.2115 -9.07766 0.0 -18.5902 0.0 
  -5.19531982421875 -3.9930801391601562 9.26239013671875 133.906 85.744 585.962 3.30161 -19.6374 1.76229 -8.87017 19.4401 3.56685 19.4488 53.9338 352.093 -26.1931 -80.493 -20.4934 -116.0821 -1.10501 367.748 -44.0023 9.3466 24.685 0.0 21.3856 0.0 4.91924 -16.4393 -9.2329 0.0 0.0 0.0 0.0 0.0 0.0 121.942 -5.32392 -361.161 47.0479 3.46393 -19.2671 0.0 22.6694 0.0 2.8543 -9.46785 14.589 0.0 0.0 0.0 0.0 0.0 0.0 -3.24872 -1.37125 -5.27443 0.0 13.2879 0.0 -9.09442 -3.3773994 9.79036 0.0 -22.68763 0.0 2.59148 -3.35127 14.3176 0.0 19.5852 0.0 27.0815 -13.210699 -9.09018 0.0 -18.59893 0.0 
  -5.198419799804688 -3.9904098510742188 9.262509765625 132.968 85.8127 586.904 3.26824 -19.5857 1.66972 -8.80803 19.5017 3.52706 19.3314 54.3595 352.294 -26.6913 -80.45 -21.0401 -116.122696 -1.11323 367.807 -43.8688 9.36752 25.0011 0.0 21.5708 0.0 5.09908 -16.4302 -9.31669 0.0 0.0 0.0 0.0 0.0 0.0 121.8991 -5.29878 -361.032 47.0527 3.3827 -19.3742 0.0 22.7593 0.0 2.84822 -9.49415 14.5071 0.0 0.0 0.0 0.0 0.0 0.0 -3.22452 -1.31813 -5.25126 0.0 13.3409 0.0 -9.10433 -3.3791008 9.75053 0.0 -22.67524 0.0 2.61678 -3.28281 14.3046 0.0 19.6092 0.0 27.0482 -13.1996 -9.11773 0.0 -18.59326 0.0 
  -5.201320190429687 -3.9874301147460938 9.262650146484376 131.701 85.9034 588.168 3.26678 -19.4844 1.62133 -8.78569 19.5587 3.48648 19.3539 54.6562 352.3 -27.0634 -80.4119 -21.3924 -116.0983 -1.09217 367.816 -43.834 9.36947 25.2379 0.0 21.6664 0.0 5.21343 -16.443 -9.42436 0.0 0.0 0.0 0.0 0.0 0.0 121.859695 -5.2962 -361.03 47.0835 3.42163 -19.4024 0.0 22.7246 0.0 2.80197 -9.28577 14.3612 0.0 0.0 0.0 0.0 0.0 0.0 -3.20653 -1.23837 -5.28442 0.0 13.4097 0.0 -9.15897 -3.399599 9.75767 0.0 -22.68797 0.0 2.63722 -3.1811 14.2596 0.0 19.6189 0.0 27.0429 -13.1672 -9.09955 0.0 -18.61218 0.0 
  -5.204169921875 -3.9835400390625 9.26239990234375 130.703 85.9696 589.119 3.27148 -19.3703 1.59715 -8.74119 19.575 3.465 19.3016 54.874 352.365 -27.4638 -80.3707 -21.7784 -116.092804 -1.08364 367.735 -43.8202 9.32637 25.5074 0.0 21.7129 0.0 5.27233 -16.3917 -9.6324 0.0 0.0 0.0 0.0 0.0 0.0 121.839005 -5.35733 -361.134 47.0386 3.60541 -19.5536 0.0 22.701 0.0 2.79397 -9.18866 14.2806 0.0 0.0 0.0 0.0 0.0 0.0 -3.18833 -1.18888 -5.27244 0.0 13.4669 0.0 -9.18346 -3.4223995 9.76871 0.0 -22.69527 0.0 2.65822 -3.12347 14.2646 0.0 19.6312 0.0 27.0071 -13.142799 -9.09535 0.0 -18.61416 0.0 
  -5.206619873046875 -3.9789199829101562 9.262249755859376 129.895 86.0195 589.875 3.25902 -19.2749 1.56255 -8.65939 19.6217 3.47499 19.2017 54.9643 352.45 -27.8602 -80.3385 -22.1438 -116.0988 -1.053 367.641 -43.8373 9.28348 25.7418 0.0 21.7483 0.0 5.34255 -16.4046 -9.8114 0.0 0.0 0.0 0.0 0.0 0.0 121.8266 -5.30797 -360.966 46.9579 3.45522 -19.7197 0.0 22.8209 0.0 2.80466 -9.34307 14.2579 0.0 0.0 0.0 0.0 0.0 0.0 -3.17916 -1.16918 -5.27744 0.0 13.5323 0.0 -9.21224 -3.4503994 9.81191 0.0 -22.6882 0.0 2.67956 -3.09843 14.3028 0.0 19.662 0.0 26.9729 -13.1269 -9.10435 0.0 -18.59244 0.0 
  -5.209180297851563 -3.9740399169921874 9.262509765625 129.417 86.0555 590.303 3.24712 -19.1883 1.53605 -8.58261 19.6522 3.4882 19.1457 54.9665 352.473 -28.2787 -80.3595 -22.561 -116.111496 -1.00858 367.596 -43.8342 9.25224 25.9603 0.0 21.7936 0.0 5.36166 -16.3698 -9.95461 0.0 0.0 0.0 0.0 0.0 0.0 121.8094 -5.26353 -360.958 46.9097 3.42792 -19.7125 0.0 22.8174 0.0 2.8195 -9.21299 14.3345 0.0 0.0 0.0 0.0 0.0 0.0 -3.16179 -1.18569 -5.26809 0.0 13.6131 0.0 -9.23524 -3.4687996 9.83075 0.0 -22.68535 0.0 2.70302 -3.09505 14.3143 0.0 19.6752 0.0 26.9862 -13.094801 -9.08482 0.0 -18.59592 0.0 
  -5.21166015625 -3.9685101318359375 9.262670288085937 129.102 86.0805 590.584 3.23255 -19.0831 1.50544 -8.50398 19.6495 3.48802 19.0535 54.8818 352.522 -28.6396 -80.3884 -22.9572 -116.135 -0.970436 367.569 -43.8414 9.23833 26.0912 0.0 21.8081 0.0 5.37909 -16.4158 -9.96479 0.0 0.0 0.0 0.0 0.0 0.0 121.7835 -5.27473 -361.074 46.8704 3.57519 -19.7386 0.0 22.7384 0.0 2.83902 -9.1206 14.4468 0.0 0.0 0.0 0.0 0.0 0.0 -3.14824 -1.22869 -5.25931 0.0 13.702 0.0 -9.2521 -3.4955997 9.84887 0.0 -22.66193 0.0 2.72109 -3.11415 14.2991 0.0 19.6929 0.0 26.9799 -13.052099 -9.05641 0.0 -18.61065 0.0 
  -5.21427001953125 -3.9618798828125 9.262509765625 129.168 86.0873 590.447 3.2443 -18.9489 1.51909 -8.45014 19.5606 3.47682 19.0071 54.7613 352.518 -28.9046 -80.4166 -23.2015 -116.1558 -0.934411 367.582 -43.8332 9.20397 26.1838 0.0 21.8233 0.0 5.40428 -16.4402 -9.88083 0.0 0.0 0.0 0.0 0.0 0.0 121.762695 -5.21587 -361.041 46.8482 3.48877 -19.8428 0.0 22.717 0.0 2.8025 -9.12995 14.4548 0.0 0.0 0.0 0.0 0.0 0.0 -3.12647 -1.29607 -5.1979 0.0 13.7715 0.0 -9.28856 -3.5177002 9.84679 0.0 -22.67242 0.0 2.74688 -3.1697 14.34 0.0 19.7021 0.0 26.9497 -13.0116005 -9.05204 0.0 -18.62684 0.0 
  -5.216430053710938 -3.95625 9.26260009765625 129.588 86.0627 589.988 3.25169 -18.8712 1.5202 -8.41091 19.4775 3.45534 18.9367 54.6257 352.539 -29.1818 -80.4504 -23.4724 -116.1691 -0.90876 367.638 -43.8536 9.22966 26.154 0.0 21.7727 0.0 5.32549 -16.5102 -10.1885 0.0 0.0 0.0 0.0 0.0 0.0 121.7203 -5.16242 -360.986 46.8638 3.36639 -19.9101 0.0 22.7371 0.0 2.82436 -9.25913 14.3361 0.0 0.0 0.0 0.0 0.0 0.0 -3.11242 -1.38385 -5.14529 0.0 13.8094 0.0 -9.29084 -3.5041008 9.83522 0.0 -22.68888 0.0 2.76213 -3.25356 14.3738 0.0 19.7125 0.0 26.9284 -12.985701 -9.06078 0.0 -18.62832 0.0 
  -5.218839721679688 -3.95114013671875 9.262750244140625 129.962 86.0222 589.572 3.24493 -18.8068 1.5295 -8.38315 19.3889 3.45281 18.9247 54.4512 352.495 -29.3498 -80.4945 -23.6451 -116.1717 -0.868938 367.716 -43.8607 9.23794 26.1206 0.0 21.7356 0.0 5.2902 -16.472 -10.2535 0.0 0.0 0.0 0.0 0.0 0.0 121.6715 -5.15002 -360.995 46.9124 3.35173 -19.9207 0.0 22.6387 0.0 2.90991 -9.27149 14.5206 0.0 0.0 0.0 0.0 0.0 0.0 -3.10654 -1.45387 -5.08319 0.0 13.7986 0.0 -9.28734 -3.4794998 9.8165 0.0 -22.678871 0.0 2.77285 -3.34305 14.457 0.0 19.7294 0.0 26.9249 -12.992399 -9.09519 0.0 -18.61311 0.0 
  -5.220900268554687 -3.944729919433594 9.263099975585938 130.124 86.0129 589.324 3.27148 -18.7085 1.56894 -8.36368 19.3234 3.45479 18.8355 54.2423 352.534 -29.4994 -80.5336 -23.7976 -116.1606 -0.834372 367.741 -43.8964 9.24113 26.1274 0.0 21.6837 0.0 5.28472 -16.4628 -10.3362 0.0 0.0 0.0 0.0 0.0 0.0 121.6127 -5.11649 -361.055 46.9722 3.41108 -19.9489 0.0 22.5147 0.0 2.93737 -9.26646 14.7349 0.0 0.0 0.0 0.0 0.0 0.0 -3.09032 -1.49227 -4.99884 0.0 13.7816 0.0 -9.31926 -3.4678993 9.80642 0.0 -22.67504 0.0 2.77873 -3.41145 14.4627 0.0 19.7264 0.0 26.949 -12.9345 -9.01968 0.0 -18.61434 0.0 
